<svg xmlns:dc="http://purl.org/dc/elements/1.1/" xmlns:cc="http://creativecommons.org/ns#" xmlns:rdf="http://www.w3.org/1999/02/22-rdf-syntax-ns#" xmlns:svg="http://www.w3.org/2000/svg" xmlns="http://www.w3.org/2000/svg" xmlns:sodipodi="http://sodipodi.sourceforge.net/DTD/sodipodi-0.dtd" xmlns:inkscape="http://www.inkscape.org/namespaces/inkscape" version="1.1" x="0px" y="0px" viewBox="0 0 100 125"><g transform="translate(0,-952.36218)"><path style="color:#000000;enable-background:accumulate;" d="m 50,963.36201 c -14.26963,0 -26,11.1275 -26,27 0,5.6644 1.33423,9.6047 3.8125,13.96879 l 20.4375,36 a 2.0001999,2.0001999 0 0 0 3.5,0 l 20.4375,-36 C 74.66581,999.96661 76,996.02631 76,990.36201 c 0,-15.8725 -11.73037,-27 -26,-27 z m 0,14 c 6.62742,0 12,5.3726 12,12 0,6.6273 -5.37258,11.99999 -12,11.99999 -6.62742,0 -12,-5.37269 -12,-11.99999 0,-6.6274 5.37258,-12 12,-12 z" fill="#000000" stroke="none" marker="none" visibility="visible" display="inline" overflow="visible"/></g></svg>