<svg xmlns="http://www.w3.org/2000/svg" height="511pt" version="1.1" viewBox="-8 1 511 511.99996" width="511pt">
<g id="surface1">
<path d="M 421.375 132.917969 L 421.375 124.046875 C 421.375 87.78125 391.976562 58.378906 355.710938 58.378906 C 339.195312 58.378906 324.113281 64.492188 312.574219 74.558594 C 297.800781 31.195312 256.722656 0 208.359375 0 L 180.863281 0 C 120.070312 0 70.789062 49.28125 70.789062 110.074219 L 70.789062 134.351562 C 29.921875 148.21875 0.5 186.878906 0.5 232.433594 C 0.5 289.644531 46.875 336.019531 104.085938 336.019531 L 392.644531 336.019531 C 449.851562 336.019531 496.230469 289.644531 496.230469 232.433594 C 496.230469 185.199219 464.601562 145.375 421.375 132.917969 Z M 421.375 132.917969 " style=" stroke:none;fill-rule:nonzero;fill:rgb(37.647059%,74.117647%,80%);fill-opacity:1;" />
<path d="M 30.949219 232.433594 C 30.949219 190.566406 55.800781 154.519531 91.550781 138.195312 C 97.414062 135.515625 101.238281 129.738281 101.238281 123.289062 L 101.238281 110.074219 C 101.238281 49.890625 149.542969 0.992188 209.496094 0.0234375 C 209.117188 0.0195312 208.738281 0 208.359375 0 L 180.863281 0 C 120.070312 0 70.789062 49.28125 70.789062 110.074219 L 70.789062 134.351562 C 29.570312 148.339844 -0.00390625 187.542969 0.507812 233.609375 C 1.140625 290.542969 48.269531 336.019531 105.207031 336.019531 L 134.535156 336.019531 C 77.328125 336.019531 30.949219 289.644531 30.949219 232.433594 Z M 30.949219 232.433594 " style=" stroke:none;fill-rule:nonzero;fill:rgb(33.333333%,65.882353%,70.980392%);fill-opacity:1;" />
<path d="M 89.136719 435.371094 C 85.777344 435.371094 82.699219 433.128906 81.789062 429.726562 L 71.589844 391.660156 C 70.5 387.601562 72.910156 383.425781 76.972656 382.335938 C 81.035156 381.253906 85.207031 383.660156 86.292969 387.71875 L 96.496094 425.785156 C 97.582031 429.847656 95.171875 434.019531 91.113281 435.109375 C 90.453125 435.285156 89.789062 435.371094 89.136719 435.371094 Z M 89.136719 435.371094 " style=" stroke:none;fill-rule:nonzero;fill:rgb(37.647059%,74.117647%,80%);fill-opacity:1;" />
<path d="M 162.019531 435.371094 C 158.65625 435.371094 155.582031 433.128906 154.671875 429.726562 L 144.472656 391.660156 C 143.382812 387.601562 145.792969 383.425781 149.855469 382.335938 C 153.914062 381.253906 158.089844 383.660156 159.175781 387.71875 L 169.378906 425.785156 C 170.464844 429.847656 168.054688 434.019531 163.996094 435.109375 C 163.335938 435.285156 162.671875 435.371094 162.019531 435.371094 Z M 162.019531 435.371094 " style=" stroke:none;fill-rule:nonzero;fill:rgb(37.647059%,74.117647%,80%);fill-opacity:1;" />
<path d="M 234.902344 435.371094 C 231.542969 435.371094 228.464844 433.128906 227.554688 429.726562 L 217.355469 391.660156 C 216.265625 387.601562 218.675781 383.425781 222.738281 382.335938 C 226.796875 381.253906 230.972656 383.660156 232.0625 387.71875 L 242.261719 425.785156 C 243.347656 429.847656 240.941406 434.019531 236.878906 435.109375 C 236.21875 435.285156 235.554688 435.371094 234.902344 435.371094 Z M 234.902344 435.371094 " style=" stroke:none;fill-rule:nonzero;fill:rgb(37.647059%,74.117647%,80%);fill-opacity:1;" />
<path d="M 307.785156 435.371094 C 304.425781 435.371094 301.347656 433.128906 300.4375 429.726562 L 290.238281 391.660156 C 289.148438 387.601562 291.558594 383.425781 295.621094 382.335938 C 299.679688 381.253906 303.855469 383.660156 304.945312 387.71875 L 315.144531 425.785156 C 316.230469 429.847656 313.824219 434.019531 309.761719 435.109375 C 309.101562 435.285156 308.4375 435.371094 307.785156 435.371094 Z M 307.785156 435.371094 " style=" stroke:none;fill-rule:nonzero;fill:rgb(37.647059%,74.117647%,80%);fill-opacity:1;" />
<path d="M 380.667969 435.371094 C 377.308594 435.371094 374.230469 433.128906 373.320312 429.726562 L 372.0625 425.03125 C 370.976562 420.96875 373.386719 416.796875 377.445312 415.707031 C 381.503906 414.625 385.679688 417.03125 386.769531 421.089844 L 388.027344 425.785156 C 389.113281 429.847656 386.703125 434.023438 382.644531 435.109375 C 381.984375 435.285156 381.320312 435.371094 380.667969 435.371094 Z M 380.667969 435.371094 " style=" stroke:none;fill-rule:nonzero;fill:rgb(37.647059%,74.117647%,80%);fill-opacity:1;" />
<path d="M 371.3125 400.445312 C 367.949219 400.445312 364.875 398.203125 363.964844 394.800781 L 363.121094 391.660156 C 362.03125 387.601562 364.441406 383.425781 368.503906 382.335938 C 372.558594 381.25 376.738281 383.65625 377.828125 387.71875 L 378.667969 390.859375 C 379.757812 394.921875 377.347656 399.09375 373.285156 400.183594 C 372.628906 400.359375 371.964844 400.445312 371.3125 400.445312 Z M 371.3125 400.445312 " style=" stroke:none;fill-rule:nonzero;fill:rgb(37.647059%,74.117647%,80%);fill-opacity:1;" />
<path d="M 453.550781 435.371094 C 450.191406 435.371094 447.117188 433.128906 446.203125 429.726562 L 436.003906 391.660156 C 434.917969 387.601562 437.324219 383.425781 441.386719 382.335938 C 445.445312 381.253906 449.621094 383.660156 450.710938 387.71875 L 460.910156 425.785156 C 462 429.847656 459.589844 434.019531 455.527344 435.109375 C 454.867188 435.285156 454.203125 435.371094 453.550781 435.371094 Z M 453.550781 435.371094 " style=" stroke:none;fill-rule:nonzero;fill:rgb(37.647059%,74.117647%,80%);fill-opacity:1;" />
<path d="M 137.9375 512 C 134.574219 512 131.5 509.757812 130.589844 506.355469 L 120.386719 468.289062 C 119.300781 464.230469 121.710938 460.054688 125.769531 458.964844 C 129.828125 457.878906 134.007812 460.289062 135.09375 464.351562 L 145.292969 502.414062 C 146.382812 506.476562 143.972656 510.648438 139.910156 511.738281 C 139.25 511.914062 138.585938 512 137.9375 512 Z M 137.9375 512 " style=" stroke:none;fill-rule:nonzero;fill:rgb(37.647059%,74.117647%,80%);fill-opacity:1;" />
<path d="M 210.820312 512 C 207.457031 512 204.382812 509.757812 203.472656 506.355469 L 193.269531 468.289062 C 192.183594 464.230469 194.59375 460.054688 198.65625 458.964844 C 202.710938 457.878906 206.886719 460.289062 207.976562 464.351562 L 218.175781 502.414062 C 219.265625 506.476562 216.855469 510.648438 212.792969 511.738281 C 212.132812 511.914062 211.472656 512 210.820312 512 Z M 210.820312 512 " style=" stroke:none;fill-rule:nonzero;fill:rgb(37.647059%,74.117647%,80%);fill-opacity:1;" />
<path d="M 283.703125 512 C 280.339844 512 277.265625 509.757812 276.355469 506.355469 L 266.152344 468.289062 C 265.066406 464.230469 267.476562 460.054688 271.535156 458.964844 C 275.59375 457.878906 279.769531 460.289062 280.859375 464.351562 L 291.058594 502.414062 C 292.148438 506.476562 289.738281 510.648438 285.675781 511.738281 C 285.015625 511.914062 284.355469 512 283.703125 512 Z M 283.703125 512 " style=" stroke:none;fill-rule:nonzero;fill:rgb(37.647059%,74.117647%,80%);fill-opacity:1;" />
<path d="M 356.585938 512 C 353.222656 512 350.148438 509.757812 349.238281 506.355469 L 339.035156 468.289062 C 337.949219 464.230469 340.359375 460.054688 344.417969 458.964844 C 348.480469 457.878906 352.652344 460.289062 353.742188 464.347656 L 363.941406 502.414062 C 365.03125 506.476562 362.621094 510.648438 358.558594 511.738281 C 357.898438 511.914062 357.238281 512 356.585938 512 Z M 356.585938 512 " style=" stroke:none;fill-rule:nonzero;fill:rgb(37.647059%,74.117647%,80%);fill-opacity:1;" />
<path d="M 429.46875 512 C 426.105469 512 423.03125 509.757812 422.121094 506.355469 L 411.921875 468.289062 C 410.832031 464.230469 413.242188 460.054688 417.304688 458.964844 C 421.359375 457.878906 425.539062 460.289062 426.625 464.351562 L 436.828125 502.414062 C 437.914062 506.476562 435.503906 510.648438 431.445312 511.738281 C 430.785156 511.914062 430.121094 512 429.46875 512 Z M 429.46875 512 " style=" stroke:none;fill-rule:nonzero;fill:rgb(37.647059%,74.117647%,80%);fill-opacity:1;" />
</g>
</svg>